<svg xmlns="http://www.w3.org/2000/svg" width="28" height="17" viewBox="0 0 28 17">
    <g fill="none" fill-rule="evenodd">
        <path d="M-2-7h32v32H-2z"/>
        <path fill="#3DDC84" fill-rule="nonzero" d="M27.333 16.333H.667A15.111 15.111 0 0 1 3.122 9.59 12.444 12.444 0 0 1 7.19 5.667l.455-.256L5.4 1.622a.567.567 0 0 1 .189-.778.556.556 0 0 1 .767.2l2.31 3.89a14.022 14.022 0 0 1 5.378-1 13.556 13.556 0 0 1 5.278 1l2.3-3.89A.556.556 0 0 1 22.4.856a.567.567 0 0 1 .178.777l-2.245 3.8.556.311a12.644 12.644 0 0 1 4.033 4.023 16.089 16.089 0 0 1 2.411 6.566zM19 11.356a1.111 1.111 0 1 0 2.222 0 1.111 1.111 0 0 0-2.222 0zm-12.222 0a1.111 1.111 0 1 0 2.222 0 1.111 1.111 0 0 0-2.222 0z"/>
    </g>
</svg>
