<svg xmlns="http://www.w3.org/2000/svg" width="24" height="28" viewBox="0 0 24 28">
    <g fill="none" fill-rule="evenodd">
        <path d="M-4-1h32v32H-4z"/>
        <path fill="#E0E0FF" fill-rule="nonzero" d="M6.375 27.057a6.146 6.146 0 0 1-1.422-1.314 17.628 17.628 0 0 1-1.216-1.662 16.074 16.074 0 0 1-2.034-4.155c-.572-1.717-.85-3.36-.85-4.968 0-1.795.39-3.36 1.146-4.675a6.606 6.606 0 0 1 2.4-2.493 6.4 6.4 0 0 1 3.246-.96c.4 0 .834.057 1.291.171.331.092.731.24 1.223.423.628.24.971.389 1.086.423.365.137.674.194.914.194.183 0 .446-.057.737-.148.166-.058.48-.16.926-.355.44-.16.79-.297 1.068-.4.423-.125.832-.24 1.2-.297a5.664 5.664 0 0 1 1.312-.057 7.783 7.783 0 0 1 2.217.48c1.166.469 2.107 1.2 2.808 2.24a5.625 5.625 0 0 0-.828.629 6.997 6.997 0 0 0-1.406 1.72 5.828 5.828 0 0 0-.736 2.88c.017 1.237.332 2.325.96 3.268a6.092 6.092 0 0 0 1.753 1.756c.355.24.665.405.96.514-.137.428-.288.846-.463 1.257a16.216 16.216 0 0 1-1.428 2.64c-.494.72-.882 1.257-1.177 1.611-.46.549-.903.96-1.349 1.254a3.002 3.002 0 0 1-1.66.498c-.4.018-.8-.034-1.181-.145-.331-.108-.658-.23-.978-.369a7.932 7.932 0 0 0-1.035-.388 5.165 5.165 0 0 0-1.33-.168c-.457 0-.903.057-1.326.165-.354.1-.697.224-1.036.372-.48.2-.794.331-.977.388-.37.11-.75.176-1.132.2-.594 0-1.147-.171-1.698-.514l.015-.015zM14.208 5.96c-.777.389-1.515.553-2.255.498-.114-.738 0-1.497.309-2.328a6.293 6.293 0 0 1 1.143-1.92A6.181 6.181 0 0 1 15.267.77c.755-.388 1.475-.594 2.16-.628.092.777 0 1.543-.285 2.365a6.786 6.786 0 0 1-1.143 2.012 5.765 5.765 0 0 1-1.813 1.44l.022.001z"/>
    </g>
</svg>
