<svg xmlns="http://www.w3.org/2000/svg" width="28" height="28" viewBox="0 0 28 28">
    <g fill="none" fill-rule="evenodd">
        <path d="M-2-2h32v32H-2z"/>
        <path fill="#2CA5E0" fill-rule="nonzero" d="M14 .667c7.364 0 13.333 5.97 13.333 13.333 0 7.364-5.97 13.333-13.333 13.333C6.636 27.333.667 21.363.667 14 .667 6.636 6.637.667 14 .667zm6.638 8.726c-.097-.818-1.089-.638-1.64-.454-2.837 1.079-5.645 2.238-8.441 3.418-1.626.72-3.366 1.437-4.925 2.295-.76.556.531.924 1.412 1.288.983.302 2.128.765 3.11.224 1.925-1.106 3.705-2.44 5.53-3.697.332-.213 1.339-.907.998-.084-1.263 1.382-2.677 2.498-4.01 3.812-.467.38-.953 1.143-.43 1.675 1.599 1.119 3.23 2.201 4.848 3.294.673.538 1.726.103 1.874-.737.43-2.522.87-5.044 1.252-7.575.15-1.15.369-2.302.422-3.46z"/>
    </g>
</svg>
